<?xml version="1.0" encoding="UTF-8"?>
<svg width="400" height="300" viewBox="0 0 400 300" xmlns="http://www.w3.org/2000/svg">
  <!-- Clean, minimal BBQ smoker line drawing -->
  
  <!-- Main cooking chamber -->
  <rect x="80" y="140" width="180" height="60" rx="30" ry="30" 
        fill="none" stroke="#8b4513" stroke-width="3" stroke-linejoin="round"/>
  
  <!-- Firebox -->
  <rect x="260" y="160" width="50" height="40" rx="8" ry="8" 
        fill="none" stroke="#8b4513" stroke-width="3" stroke-linejoin="round"/>
  
  <!-- Connecting pipe -->
  <line x1="260" y1="180" x2="240" y2="180" 
        stroke="#8b4513" stroke-width="3" stroke-linecap="round"/>
  
  <!-- Chimney -->
  <rect x="290" y="100" width="20" height="60" 
        fill="none" stroke="#8b4513" stroke-width="3" stroke-linejoin="round"/>
  
  <!-- Chimney cap -->
  <rect x="285" y="95" width="30" height="8" rx="2" ry="2" 
        fill="none" stroke="#8b4513" stroke-width="3" stroke-linejoin="round"/>
  
  <!-- Smoke (simple curved lines) -->
  <path d="M300 95 Q305 85 300 75 Q295 65 300 55" 
        fill="none" stroke="#666" stroke-width="2" stroke-linecap="round" opacity="0.7"/>
  <path d="M305 90 Q310 80 305 70 Q300 60 305 50" 
        fill="none" stroke="#666" stroke-width="2" stroke-linecap="round" opacity="0.5"/>
  
  <!-- Legs -->
  <line x1="100" y1="200" x2="100" y2="230" stroke="#8b4513" stroke-width="3" stroke-linecap="round"/>
  <line x1="150" y1="200" x2="150" y2="230" stroke="#8b4513" stroke-width="3" stroke-linecap="round"/>
  <line x1="210" y1="200" x2="210" y2="230" stroke="#8b4513" stroke-width="3" stroke-linecap="round"/>
  <line x1="290" y1="200" x2="290" y2="230" stroke="#8b4513" stroke-width="3" stroke-linecap="round"/>
  
  <!-- Main chamber door -->
  <rect x="120" y="155" width="35" height="30" rx="3" ry="3" 
        fill="none" stroke="#8b4513" stroke-width="2" stroke-linejoin="round"/>
  
  <!-- Door handle -->
  <circle cx="145" cy="170" r="2" fill="none" stroke="#8b4513" stroke-width="2"/>
  
  <!-- Firebox door -->
  <rect x="270" y="170" width="20" height="20" rx="2" ry="2" 
        fill="none" stroke="#8b4513" stroke-width="2" stroke-linejoin="round"/>
  
  <!-- Firebox door handle -->
  <circle cx="285" cy="180" r="1.5" fill="none" stroke="#8b4513" stroke-width="2"/>
  
  <!-- Temperature gauge -->
  <circle cx="200" cy="155" r="8" fill="none" stroke="#8b4513" stroke-width="2"/>
  <line x1="200" y1="150" x2="203" y2="155" stroke="#8b4513" stroke-width="2" stroke-linecap="round"/>
  
  <!-- Side handles -->
  <path d="M75 170 Q70 170 70 175 Q70 180 75 180" 
        fill="none" stroke="#8b4513" stroke-width="2" stroke-linecap="round"/>
  <path d="M265 170 Q270 170 270 175 Q270 180 265 180" 
        fill="none" stroke="#8b4513" stroke-width="2" stroke-linecap="round"/>
  
  <!-- Simple grill grates indication -->
  <line x1="90" y1="175" x2="250" y2="175" stroke="#8b4513" stroke-width="1" opacity="0.5"/>
  <line x1="90" y1="185" x2="250" y2="185" stroke="#8b4513" stroke-width="1" opacity="0.5"/>
</svg>
